# xmcd CD database file
#
# Track frame offsets:
#	150
#	10408
#	25594
#	34513
#	49063
#	60699
#	76295
#	92601
#	106397
#	118566
#	131215
#	147867
#
# Disc length: 2195 seconds
#
# Revision: 0
# Processed by: cddbd v1.5.2PL0 Copyright (c) Steve Scherf et al.
# Submitted via: CDex 1.70beta2
#
DISCID=9608910c
DTITLE=Chet Atkins - Maybe the best
DYEAR=1900
DGENRE=Jazz
TTITLE0=chet atkins'The Entertainer' - chet atkins'The Entertainer'
TTITLE1=Chet Atkins - Stars And Stripes Forever1
TTITLE2=Chet Atkins - Yakety Axe
TTITLE3=Chet Atkins And Dolly Parton - Chet Atkins And Dolly Parton
TTITLE4=Chet Atkins and Merle Travis 'Boogie For Cecil' - Chet Atkins and Merle Travis 'Boogie For Cecil'
TTITLE5=Chet Atkins 'Ave Maria' (Version 1 - Chet Atkins 'Ave Maria' (Version 1)
TTITLE6=Chet Atkins 'City Of New Orleans' - Chet Atkins 'City Of New Orleans'
TTITLE7=Chet Atkins 'El Condor Pasa' - Chet Atkins 'El Condor Pasa'
TTITLE8=Chet Atkins 'El Paso' - Chet Atkins 'El Paso'
TTITLE9=Chet Atkins 'Mr Bojangles' (from Solo Sessions - Chet Atkins 'Mr Bojangles' (from Solo Sessions)
TTITLE10=Chet Atkins 'Rodrigo Concerto' - Chet Atkins 'Rodrigo Concerto'
TTITLE11=Chet Atkins Vincent - Chet Atkins Vincent
EXTD=
EXTT0=
EXTT1=
EXTT2=
EXTT3=
EXTT4=
EXTT5=
EXTT6=
EXTT7=
EXTT8=
EXTT9=
EXTT10=
EXTT11=
PLAYORDER=
